<svg xmlns="http://www.w3.org/2000/svg" width="179.071" height="26.359" viewBox="0 0 179.071 26.359">
  <g id="Group_1663" data-name="Group 1663" transform="translate(-27.093 -130.61)">
    <g id="Group_1662" data-name="Group 1662" transform="translate(27.093 130.61)">
      <path id="Path_17" data-name="Path 17" d="M46.944,151.026a5.764,5.764,0,0,1-1.8-.282,7.233,7.233,0,0,1-1.627-.773,6.07,6.07,0,0,1-1.352-1.17,6.477,6.477,0,0,1-.955-1.493,7.072,7.072,0,0,1-.4-1.17,4.975,4.975,0,0,1-.155-1.231,5.777,5.777,0,0,1,.5-2.4,6.546,6.546,0,0,1,1.358-1.957,6.2,6.2,0,0,1,1.984-1.318,5.979,5.979,0,0,1,2.353-.471H61.811v-.713a3.1,3.1,0,0,0-.282-1.3,3.752,3.752,0,0,0-.726-1.069,3.253,3.253,0,0,0-1.056-.713,3.172,3.172,0,0,0-1.278-.262H44.893v-3.086H58.469a6.234,6.234,0,0,1,2.474.5,6.443,6.443,0,0,1,2.017,1.378,6.179,6.179,0,0,1,1.358,2.044,6.4,6.4,0,0,1,.491,2.515v13l-17.866-.027Zm-1.829-8.634a3.267,3.267,0,0,0-1.049,1.076,2.737,2.737,0,0,0-.377,1.439,2.826,2.826,0,0,0,.262,1.217,3.335,3.335,0,0,0,.686.955,3.292,3.292,0,0,0,1,.646,3.1,3.1,0,0,0,1.217.242H61.811v-6.119H46.944A3.138,3.138,0,0,0,45.115,142.392Z" transform="translate(50.549 -124.869)" fill="#0a4066"/>
      <path id="Path_18" data-name="Path 18" d="M39.844,151.048a7.866,7.866,0,0,1-3.154-.632,8.059,8.059,0,0,1-2.569-1.722,8.15,8.15,0,0,1-1.728-2.568,7.976,7.976,0,0,1-.625-3.154v-3.315a7.916,7.916,0,0,1,.625-3.127,8.151,8.151,0,0,1,1.728-2.569,8.057,8.057,0,0,1,2.569-1.721,7.864,7.864,0,0,1,3.154-.632H53.48a7.864,7.864,0,0,1,3.154.632,8.057,8.057,0,0,1,2.569,1.721,8.151,8.151,0,0,1,1.728,2.569,7.921,7.921,0,0,1,.632,3.127v3.315a7.981,7.981,0,0,1-.632,3.154,8.15,8.15,0,0,1-1.728,2.568,8.059,8.059,0,0,1-2.569,1.722,7.866,7.866,0,0,1-3.154.632Zm-5-8.076a4.885,4.885,0,0,0,.4,1.95,4.976,4.976,0,0,0,2.649,2.649,4.88,4.88,0,0,0,1.95.39H53.48a4.88,4.88,0,0,0,1.95-.39,5.217,5.217,0,0,0,1.6-1.069,4.946,4.946,0,0,0,1.473-3.53v-3.315a4.772,4.772,0,0,0-.4-1.916,5.042,5.042,0,0,0-1.076-1.6,5.139,5.139,0,0,0-1.6-1.083,4.88,4.88,0,0,0-1.95-.39H39.844a4.88,4.88,0,0,0-1.95.39,5,5,0,0,0-1.587,1.083,5.238,5.238,0,0,0-1.062,1.6,4.771,4.771,0,0,0-.4,1.916Z" transform="translate(-0.333 -124.892)" fill="#0a4066"/>
      <path id="Path_19" data-name="Path 19" d="M50.777,151.026l-14.4-19.413H40.14l11.418,15.513q2.895-3.752,5.8-7.753t5.763-7.76h3.819L52.371,151.026Z" transform="translate(26.073 -124.869)" fill="#0a4066"/>
      <path id="Path_20" data-name="Path 20" d="M65.155,137.644h-17.2v5.474a4.9,4.9,0,0,0,.377,1.9,4.813,4.813,0,0,0,1.042,1.56,5.04,5.04,0,0,0,1.54,1.049,4.687,4.687,0,0,0,1.923.4H68.544v3H52.836a7.65,7.65,0,0,1-3.059-.612,8.137,8.137,0,0,1-2.522-1.715,7.886,7.886,0,0,1-1.688-2.508,7.792,7.792,0,0,1-.619-3.073V131.613h3.006v3h17.2Z" transform="translate(75.117 -124.869)" fill="#0a4066"/>
      <path id="Path_21" data-name="Path 21" d="M69.266,137.644h-17.2v5.474a4.9,4.9,0,0,0,.377,1.9,4.812,4.812,0,0,0,1.042,1.56,5.122,5.122,0,0,0,1.54,1.049,4.687,4.687,0,0,0,1.923.4H72.662v3H56.948a7.673,7.673,0,0,1-3.059-.612,8.137,8.137,0,0,1-2.522-1.715,8,8,0,0,1-1.688-2.508,7.786,7.786,0,0,1-.612-3.073V131.613h3v3h17.2Z" transform="translate(98.689 -124.869)" fill="#0a4066"/>
      <rect id="Rectangle_291" data-name="Rectangle 291" width="3.087" height="19.442" transform="translate(175.102 6.717)" fill="#0a4066"/>
      <path id="Path_22" data-name="Path 22" d="M55.477,130.688a2.495,2.495,0,1,1-2.495,2.495A2.5,2.5,0,0,1,55.477,130.688Z" transform="translate(121.099 -130.163)" fill="#0a4066"/>
      <path id="Path_23" data-name="Path 23" d="M48.005,156.411a3.842,3.842,0,0,1-.793-.558,5.649,5.649,0,0,1-.767-.894q-1.624-2.27-3.376-4.794t-3.55-5.09Q37.734,142.5,35.976,140t-3.349-4.815a1.152,1.152,0,0,0-.921-.444,1.4,1.4,0,0,0-.867.3,1.18,1.18,0,0,0-.417.928v20.744H27.093v-21.04l.027-.114a5.815,5.815,0,0,1,.477-2.078,4.866,4.866,0,0,1,1.069-1.56,4.633,4.633,0,0,1,1.466-.968,4.28,4.28,0,0,1,1.634-.336,4.059,4.059,0,0,1,1.883.464,4.155,4.155,0,0,1,1.573,1.547q3.46,4.942,6.879,9.851t6.912,9.885a1.616,1.616,0,0,0,.41.336,1.077,1.077,0,0,0,.5.148,1.18,1.18,0,0,0,.8-.336,1.491,1.491,0,0,0,.457-.894V130.872h3.362v21.04a6.015,6.015,0,0,1-1.573,3.678,4.388,4.388,0,0,1-1.426,1.022,3.993,3.993,0,0,1-1.647.356,3.8,3.8,0,0,1-.962-.134A2.944,2.944,0,0,1,48.005,156.411Z" transform="translate(-27.093 -130.61)" fill="#0a4066"/>
    </g>
  </g>
</svg>
